<svg xmlns="http://www.w3.org/2000/svg" width="32.7" height="45.7" viewBox="0 0 32.7 45.7"><defs><style>.cls-1{fill:#129238;}</style></defs><g id="Camada_2" data-name="Camada 2"><g id="Capa_1" data-name="Capa 1"><circle class="cls-1" cx="16.4" cy="7.8" r="7.8"/><path class="cls-1" d="M16.4,23.9a6,6,0,0,0,6-6H10.3A6,6,0,0,0,16.4,23.9Z"/><path class="cls-1" d="M25.4,18a9,9,0,0,1-7.5,8.8v7.3a7.29,7.29,0,0,1-6.6,7.3,7.09,7.09,0,0,1-7.4-6.5,2.91,2.91,0,0,1,1-5.4A2.95,2.95,0,0,1,7,34.9a4,4,0,0,0,4.3,3.6,4.13,4.13,0,0,0,3.6-4.2V26.9a9,9,0,0,1-7.5-8.8A8.44,8.44,0,0,0,0,26.5V42a3.69,3.69,0,0,0,3.7,3.7H29A3.69,3.69,0,0,0,32.7,42V26.4A8.27,8.27,0,0,0,25.4,18Z"/></g></g></svg>