<?xml version="1.0" encoding="utf-8"?>
<!-- Generator: Adobe Illustrator 25.2.1, SVG Export Plug-In . SVG Version: 6.00 Build 0)  -->
<svg version="1.1" id="Capa_1" xmlns="http://www.w3.org/2000/svg" xmlns:xlink="http://www.w3.org/1999/xlink" x="0px" y="0px"
	 viewBox="0 0 45.8 45.8" style="enable-background:new 0 0 45.8 45.8;" xml:space="preserve">
<style type="text/css">
	.st0{fill:#129238;}
</style>
<g>
	<g>
		<path class="st0" d="M31.2,5.8V0H7.3C5.2,0,3.5,1.8,3.5,3.9v38c0,2.1,1.7,3.8,3.8,3.8h31.1c2.1,0,3.8-1.7,3.8-3.8V11.1h-5.7
			C33.6,11.1,31.2,8.7,31.2,5.8z M29.8,25.9h-4v4c0,1.6-1.3,3-3,3c-1.6,0-3-1.3-3-3v-4h-4c-1.6,0-3-1.3-3-3s1.3-3,3-3h4v-4
			c0-1.6,1.3-3,3-3c1.6,0,3,1.3,3,3v4h4c1.6,0,3,1.3,3,3S31.5,25.9,29.8,25.9z"/>
		<path class="st0" d="M34.2,0v5.7c0,1.3,1.1,2.4,2.4,2.4h5.7V8.1L34.2,0z"/>
	</g>
</g>
</svg>
