<?xml version="1.0" encoding="utf-8"?>
<!-- Generator: Adobe Illustrator 25.2.1, SVG Export Plug-In . SVG Version: 6.00 Build 0)  -->
<svg version="1.1" id="Capa_1" xmlns="http://www.w3.org/2000/svg" xmlns:xlink="http://www.w3.org/1999/xlink" x="0px" y="0px"
	 viewBox="0 0 46.2 46.2" style="enable-background:new 0 0 46.2 46.2;" xml:space="preserve">
<style type="text/css">
	.st0{fill:#129238;}
</style>
<g>
	<g>
		<path class="st0" d="M43.2,10.7h-8.1v-0.3c0-4.5-3.7-8.1-8.2-8.1h-7.8c-4.5,0-8.2,3.7-8.2,8.1v0.3H3c-1.6,0-3,1.3-3,3v27.2
			c0,1.6,1.3,3,2.9,3h40.3c1.6,0,2.9-1.3,2.9-3V13.7C46.2,12.1,44.9,10.7,43.2,10.7z M15.1,10.4c0-2.3,1.9-4.2,4.1-4.2H27
			c2.3,0,4.1,1.9,4.1,4.2v0.3H15.1V10.4z M23.1,39.3c-6.6,0-11.9-5.4-11.9-11.9s5.4-11.9,11.9-11.9c6.6,0,11.9,5.4,11.9,11.9
			S29.7,39.3,23.1,39.3z"/>
		<path class="st0" d="M23.1,18.4c-4.9,0-8.9,4-8.9,8.9c0,4.9,4,8.9,8.9,8.9c4.9,0,8.9-4,8.9-8.9C32,22.4,28,18.4,23.1,18.4z
			 M28,29.3h-2.9v2.9c0,1.1-0.9,2-2,2s-2-0.9-2-2v-2.9h-2.9c-1.1,0-2-0.9-2-2s0.9-2,2-2h2.9v-2.9c0-1.1,0.9-2,2-2c1.1,0,2,0.9,2,2
			v2.9H28c1.1,0,2,0.9,2,2C30,28.4,29.1,29.3,28,29.3z"/>
	</g>
</g>
</svg>
