<?xml version="1.0" encoding="utf-8"?>
<!-- Generator: Adobe Illustrator 25.2.1, SVG Export Plug-In . SVG Version: 6.00 Build 0)  -->
<svg version="1.1" id="Capa_1" xmlns="http://www.w3.org/2000/svg" xmlns:xlink="http://www.w3.org/1999/xlink" x="0px" y="0px"
	 viewBox="0 0 512 512" style="enable-background:new 0 0 512 512;" xml:space="preserve">
<style type="text/css">
	.st0{fill:#129238;}
</style>
<path class="st0" d="M335.8,55L281.4,9.3C274,3.1,265,0,256,0s-18,3.1-25.4,9.3L176.2,55H335.8z"/>
<path class="st0" d="M46,200.9l203.8,159.3c2.2,1.8,4.6,2.1,6.2,2.1c1.6,0,3.9-0.4,6.2-2.1L466,200.9V105c0-11-9-20-20-20H66
	c-11,0-20,9-20,20V200.9z M380.5,225c0,8.3-6.7,15-15,15h-219c-8.3,0-15-6.7-15-15s6.7-15,15-15h219
	C373.8,210,380.5,216.7,380.5,225z M288.5,150c8.3,0,15,6.7,15,15s-6.7,15-15,15h-142c-8.3,0-15-6.7-15-15s6.7-15,15-15H288.5z"/>
<path class="st0" d="M472,512c4.1,0,8.1-0.6,11.8-1.8l-188.3-135c-0.7-0.5-1.3-1-1.8-1.6l-13,10.2c-7.2,5.7-15.9,8.5-24.6,8.5
	s-17.4-2.8-24.6-8.5l-13-10.2c-0.6,0.6-1.2,1.1-1.8,1.6l-188.3,135c3.7,1.1,7.7,1.8,11.8,1.8H472z"/>
<path class="st0" d="M512,203L318.1,354.5l189.5,135.8c2.8-5.5,4.5-11.7,4.5-18.3V203z"/>
<path class="st0" d="M193.9,354.5L0,203v269c0,6.6,1.6,12.9,4.5,18.3L193.9,354.5z"/>
</svg>
