<svg xmlns="http://www.w3.org/2000/svg" width="286.45" height="307.25" viewBox="0 0 286.45 307.25"><defs><style>.cls-1{fill:#129238;}</style></defs><g id="Camada_2" data-name="Camada 2"><g id="Camada_1-2" data-name="Camada 1"><path class="cls-1" d="M147.93,150.29v10.3c-.35,2-2.21,2.9-3.79,3.25-7.67,1.72-15.44,6.6-14.18,13.55.71,4,3.3,7.28,8.22,8.84v-9.6c0-3.4,5.28-4.92,8.58-5.51,5.52-1,9.85-4.43,10.3-9C157.55,157.12,153.7,152.82,147.93,150.29Z"/><path class="cls-1" d="M144.88,199l-2.31,1.22-.37.28a2.15,2.15,0,0,0-.7,1.09.35.35,0,0,0,.19.47h0l.4.17,1,.2a7.68,7.68,0,0,1,1.67.64h0Z"/><path class="cls-1" d="M148.57,186.31a2.15,2.15,0,0,0-.95-.35h-1.13c-.68,2.93-2.26,4.93-4.52,5.6-6.68,2-9.57,8.58-4.78,13.82a7.55,7.55,0,0,0,8.31,1.54c.05-1.65-.77-2.88-3.8-3.35-2.8-.9-1.48-3.65.18-4.6,3.75-1.84,6.65-3.7,8.22-6.51C151,189.68,150.48,187.66,148.57,186.31Z"/><path class="cls-1" d="M142.39,102.22h.31a5.92,5.92,0,0,0,6.05-5.77h0v0a6.06,6.06,0,1,0-6.36,5.74Z"/><path class="cls-1" d="M140.6,208.75l.2,6.76h3.6l.2-6.84A9.15,9.15,0,0,1,140.6,208.75Z"/><path class="cls-1" d="M145.12,185.64a1.15,1.15,0,0,1,.17-.41l.36-12.34c-3.28.77-6,2.09-6,3.76V177l.4,13.74a11.51,11.51,0,0,1,1.52-.56C143.18,189.73,144.57,188.21,145.12,185.64Z"/><path class="cls-1" d="M147.15,122l.1-3.51-.09-.19-.36-.51h-1.87a27.69,27.69,0,0,1-7-1.09l.32,10.82c1.75-.84,3.52-1.57,5-2.25l0,0A8.24,8.24,0,0,0,147.15,122Z"/><path class="cls-1" d="M248.86,49.33,180.72,10a75.13,75.13,0,0,0-75,0L37.59,49.4A75.09,75.09,0,0,0,0,114.46V192.9A75.09,75.09,0,0,0,37.59,258l68.17,39.26a75.08,75.08,0,0,0,75,0l68.14-39.29a75.1,75.1,0,0,0,37.55-65.1V114.39A75.09,75.09,0,0,0,248.86,49.33ZM229.42,189.87,214.2,214.54A10.82,10.82,0,0,1,199.32,218l-30.69-19v36a10.87,10.87,0,0,1-10.85,10.86H129a11.06,11.06,0,0,1-11.06-11V199L87.15,218a10.7,10.7,0,0,1-14.72-3.49L57.05,189.66a10.7,10.7,0,0,1,3.49-14.72L95,153.68,60.68,132.5a10.86,10.86,0,0,1-3.55-14.94l15.3-24.81a10.69,10.69,0,0,1,14.71-3.48l30.79,19V72.16A10.77,10.77,0,0,1,128.7,61.39h29a10.94,10.94,0,0,1,10.94,10.94v36L199.2,89.46A11,11,0,0,1,214.28,93l15.08,24.45a11,11,0,0,1-3.56,15.14l-34.22,21.11,34.28,21.14A10.91,10.91,0,0,1,229.42,189.87Z"/><path class="cls-1" d="M139.41,154.43a1.27,1.27,0,0,1-.37.92l.24,8.49a30.19,30.19,0,0,1,4.55-1.38v0a4,4,0,0,0,2.18-1.11l.7-23.83c-1.34.47-2.65.87-3.74,1.24-3.14,1.09-3.51,1.69-3.46,2.12v.2Z"/><path class="cls-1" d="M149,105c-8.68-3-14.4.14-18.52,6.51a25.57,25.57,0,0,0,17.08,5c2.92,3.34,1.44,7.59-3.71,10-6.21,3-15.37,6-16.35,12.93-.92,6.07,1.83,11.88,10.61,15v0l.09-13.37c-.45-3.43,7.77-3.7,12.74-7,4.65-3.13,8.06-8.38,8-13.63C158.79,114.31,156.59,108.44,149,105Z"/></g></g></svg>