<svg xmlns="http://www.w3.org/2000/svg" xmlns:xlink="http://www.w3.org/1999/xlink" width="1087.73" height="328.9" viewBox="0 0 1087.73 328.9"><defs><style>.cls-1{fill:none;}.cls-2{fill:#fff;}.cls-3{font-size:178.69px;font-family:Arvo-Bold, Arvo;font-weight:700;}.cls-14,.cls-3{fill:#0e5c2b;}.cls-4{letter-spacing:-0.04em;}.cls-15,.cls-5{fill:#007433;}.cls-5{letter-spacing:-0.04em;}.cls-6{font-size:43.87px;font-family:Montserrat-Regular, Montserrat;}.cls-13,.cls-6{fill:#009238;}.cls-7{letter-spacing:-0.02em;}.cls-8{letter-spacing:0em;}.cls-9{letter-spacing:-0.01em;}.cls-10{letter-spacing:0em;}.cls-11{letter-spacing:-0.02em;}.cls-12{clip-path:url(#clip-path);}.cls-16{clip-path:url(#clip-path-2);}</style><clipPath id="clip-path" transform="translate(17.58 10.91)"><path class="cls-1" d="M37.59,49.34,105.72,10a75.11,75.11,0,0,1,75,0l68.14,39.3a75.09,75.09,0,0,1,37.59,65.06v78.44A75.1,75.1,0,0,1,248.9,257.9l-68.14,39.29a75.11,75.11,0,0,1-75,0L37.59,257.9A75.1,75.1,0,0,1,0,192.84V114.4A75.09,75.09,0,0,1,37.59,49.34Z"/></clipPath><clipPath id="clip-path-2" transform="translate(17.58 10.91)"><path class="cls-2" d="M56.84,68.34l55.72-32.13a61.41,61.41,0,0,1,61.36,0l55.72,32.13a61.43,61.43,0,0,1,30.74,53.21v64.14a61.41,61.41,0,0,1-30.74,53.2L173.92,271a61.41,61.41,0,0,1-61.36,0L56.85,238.89a61.41,61.41,0,0,1-30.74-53.2V121.55A61.44,61.44,0,0,1,56.84,68.34Z"/></clipPath></defs><g id="Camada_2" data-name="Camada 2"><g id="Layer_1" data-name="Layer 1"><text class="cls-3" transform="translate(341.09 206.37)">S<tspan class="cls-4" x="108.63" y="0">IN</tspan><tspan class="cls-5" x="313.16" y="0">MED</tspan></text><text class="cls-6" transform="translate(339.86 267.21)">Sindi<tspan class="cls-7" x="111.21" y="0">c</tspan><tspan class="cls-8" x="134.99" y="0">a</tspan><tspan class="cls-9" x="160.69" y="0">t</tspan><tspan class="cls-10" x="178.29" y="0">o dos Médi</tspan><tspan class="cls-11" x="415.05" y="0">c</tspan><tspan class="cls-10" x="438.87" y="0">os de Alagoas</tspan></text><g class="cls-12"><path class="cls-13" d="M289.35,71.3a164.85,164.85,0,0,1,0,164.45h0L147,153.59v-.11Z" transform="translate(17.58 10.91)"/><path class="cls-14" d="M289.35,235.75h0A164.25,164.25,0,0,1,147,318V153.59Z" transform="translate(17.58 10.91)"/><path class="cls-15" d="M289.35,71.3,147,153.48V-10.91A164.22,164.22,0,0,1,289.35,71.3Z" transform="translate(17.58 10.91)"/><path class="cls-15" d="M147,153.79V318h-.12A164.32,164.32,0,0,1,4.4,235.78l0,0,142.44-82.21.12.05Z" transform="translate(17.58 10.91)"/><path class="cls-14" d="M147-10.58V153.48l-.12.06L4.43,71.3l0,0A164.33,164.33,0,0,1,146.87-10.91H147Z" transform="translate(17.58 10.91)"/><path class="cls-13" d="M146.87,153.54,4.43,235.75l0,0a164.9,164.9,0,0,1,0-164.51l0,0Z" transform="translate(17.58 10.91)"/></g><path class="cls-2" d="M56.84,68.34l55.72-32.13a61.41,61.41,0,0,1,61.36,0l55.72,32.13a61.43,61.43,0,0,1,30.74,53.21v64.14a61.41,61.41,0,0,1-30.74,53.2L173.92,271a61.41,61.41,0,0,1-61.36,0L56.85,238.89a61.41,61.41,0,0,1-30.74-53.2V121.55A61.44,61.44,0,0,1,56.84,68.34Z" transform="translate(17.58 10.91)"/><g class="cls-16"><path class="cls-2" d="M262.71,86.3a134.82,134.82,0,0,1,0,134.48h0L146.3,153.6v-.09Z" transform="translate(17.58 10.91)"/><path class="cls-2" d="M262.71,220.78h0A134.32,134.32,0,0,1,146.3,288V153.6Z" transform="translate(17.58 10.91)"/><path class="cls-2" d="M262.71,86.3,146.3,153.51V19.08A134.3,134.3,0,0,1,262.71,86.3Z" transform="translate(17.58 10.91)"/><path class="cls-2" d="M146.3,153.76V288h-.09A134.36,134.36,0,0,1,29.71,220.8l0,0,116.48-67.23.09,0Z" transform="translate(17.58 10.91)"/><path class="cls-2" d="M146.3,19.35V153.51l-.09,0L29.73,86.3l0,0a134.36,134.36,0,0,1,116.5-67.2h.09Z" transform="translate(17.58 10.91)"/><path class="cls-2" d="M146.21,153.55,29.73,220.78l0,0a134.86,134.86,0,0,1,0-134.52l0,0Z" transform="translate(17.58 10.91)"/></g><path class="cls-15" d="M117.94,234.84V199L87.15,218a10.7,10.7,0,0,1-14.72-3.49L57.05,189.6a10.7,10.7,0,0,1,3.49-14.72L95,153.62,60.68,132.44a10.86,10.86,0,0,1-3.55-14.94l15.3-24.81a10.69,10.69,0,0,1,14.71-3.48l30.79,19V72.1A10.77,10.77,0,0,1,128.7,61.33h29a10.94,10.94,0,0,1,10.94,11v35.93l30.56-18.86a11,11,0,0,1,15.08,3.57l15.08,24.45a11,11,0,0,1-3.59,15.16l-34.19,21.09,34.28,21.14a10.92,10.92,0,0,1,3.56,15l-15.22,24.67A10.82,10.82,0,0,1,199.32,218L168.63,199v36a10.86,10.86,0,0,1-10.85,10.86H129A11.06,11.06,0,0,1,117.94,234.84Zm26.46-19.39.2-6.84a9.28,9.28,0,0,1-4,.08l.2,6.76Zm1.1-8.59c.05-1.65-.77-2.88-3.8-3.35-2.8-.9-1.48-3.65.18-4.6,3.75-1.84,6.65-3.7,8.22-6.51.94-2.78.38-4.8-1.53-6.15a2.23,2.23,0,0,0-.95-.35h-1.13c-.68,2.93-2.26,4.93-4.52,5.6-6.68,2-9.57,8.58-4.78,13.82A7.57,7.57,0,0,0,145.5,206.86Zm-.73-3.85.11-4.09-2.31,1.22-.37.28a2.23,2.23,0,0,0-.7,1.09.37.37,0,0,0,.2.48l.4.17,1,.2A7.34,7.34,0,0,1,144.77,203Zm-3.2-12.86c1.61-.48,3-2,3.55-4.57a1.15,1.15,0,0,1,.17-.41l.36-12.34c-3.28.77-6,2.09-6,3.76V177l.4,13.74A12.11,12.11,0,0,1,141.57,190.15Zm-3.39-4v-9.58c0-3.4,5.28-4.92,8.58-5.51,5.52-1,9.85-4.43,10.3-9,.49-4.95-3.36-9.3-9.13-11.83v10.3c-.35,2-2.21,2.9-3.79,3.25-7.67,1.72-15.44,6.6-14.18,13.55C130.67,181.33,133.26,184.61,138.18,186.17Zm5.64-23.77a4,4,0,0,0,2.17-1.11l.7-23.83c-1.34.47-2.65.87-3.74,1.24-3.14,1.09-3.51,1.69-3.46,2.12V141l-.09,13.37a1.28,1.28,0,0,1-.37.92l.24,8.49A30.21,30.21,0,0,1,143.82,162.4Zm-5.73-8,.09-13.37c-.45-3.43,7.77-3.7,12.74-7,4.65-3.13,8.06-8.38,8-13.63-.13-6.13-2.33-12-9.94-15.46-8.68-3-14.4.14-18.52,6.51a25.58,25.58,0,0,0,17.08,5c2.92,3.34,1.44,7.59-3.71,10-6.21,2.95-15.37,6.05-16.35,12.93C126.56,145.43,129.31,151.24,138.09,154.36Zm5.12-29.11a8.28,8.28,0,0,0,3.94-3.29l.1-3.51-.09-.19-.36-.51-1.87,0a27.72,27.72,0,0,1-7-1.09l.32,10.82C140,126.66,141.77,125.93,143.21,125.25Zm5.54-28.85a6.06,6.06,0,1,0-6.05,5.75A5.91,5.91,0,0,0,148.75,96.4Z" transform="translate(17.58 10.91)"/></g></g></svg>