<svg xmlns="http://www.w3.org/2000/svg" width="1070.16" height="307.22" viewBox="0 0 1070.16 307.22"><defs><style>.cls-1{font-size:178.69px;font-family:Arvo-Bold, Arvo;font-weight:700;}.cls-1,.cls-3,.cls-9{fill:#fff;}.cls-2{letter-spacing:-0.04em;}.cls-3{font-size:43.87px;font-family:Montserrat-Regular, Montserrat;}.cls-4{letter-spacing:-0.02em;}.cls-5{letter-spacing:0em;}.cls-6{letter-spacing:-0.01em;}.cls-7{letter-spacing:0em;}.cls-8{letter-spacing:-0.02em;}</style></defs><g id="Camada_2" data-name="Camada 2"><g id="Layer_1" data-name="Layer 1"><text class="cls-1" transform="translate(323.51 198.37)">S<tspan class="cls-2" x="108.63" y="0">INMED</tspan></text><text class="cls-3" transform="translate(322.29 259.22)">Sindi<tspan class="cls-4" x="111.21" y="0">c</tspan><tspan class="cls-5" x="134.99" y="0">a</tspan><tspan class="cls-6" x="160.69" y="0">t</tspan><tspan class="cls-7" x="178.29" y="0">o dos Médi</tspan><tspan class="cls-8" x="415.05" y="0">c</tspan><tspan class="cls-7" x="438.87" y="0">os de Alagoas</tspan></text><path class="cls-9" d="M253,92.29a61.33,61.33,0,0,1,7.42,29.25v64.14A61.34,61.34,0,0,1,253,214.79l24.27,14a75,75,0,0,0,9.18-36V114.39a75.05,75.05,0,0,0-9.26-36.11Z"/><path class="cls-9" d="M277.31,228.79l-24.27-14-.17.3a61.35,61.35,0,0,1-23.23,23.79L173.92,271a61.33,61.33,0,0,1-26.93,8.1v28a75,75,0,0,0,33.77-9.94l68.14-39.29A75,75,0,0,0,277.31,228.79Z"/><path class="cls-9" d="M147,28.11a61.32,61.32,0,0,1,26.93,8.09l55.72,32.14A61.3,61.3,0,0,1,252.81,92l.15.28,24.27-14A75.06,75.06,0,0,0,248.9,49.33L180.76,10A75.11,75.11,0,0,0,147,.09Z"/><path class="cls-9" d="M147,279.11l-.69,0A61.3,61.3,0,0,1,112.56,271L56.84,238.88a61.33,61.33,0,0,1-21.57-20.94L11,232a75.05,75.05,0,0,0,26.59,25.94l68.13,39.29A75.07,75.07,0,0,0,147,307.12Z"/><path class="cls-9" d="M35.35,89.14a61.3,61.3,0,0,1,21.49-20.8L112.56,36.2a61.48,61.48,0,0,1,33.74-8.13l.69,0V.09A75.15,75.15,0,0,0,105.72,10L37.58,49.33a75.07,75.07,0,0,0-26.5,25.8Z"/><path class="cls-9" d="M35.27,217.94l-.17-.27a61.4,61.4,0,0,1-9-32V121.54a61.48,61.48,0,0,1,9.06-32.11l.18-.29-24.27-14A75.11,75.11,0,0,0,0,114.39v78.44A75.09,75.09,0,0,0,11,232Z"/><polygon class="cls-9" points="146.3 153.59 146.3 153.5 146.21 153.54 146.3 153.59"/><path class="cls-9" d="M117.94,234.83V199L87.15,218a10.7,10.7,0,0,1-14.72-3.49L57.05,189.59a10.7,10.7,0,0,1,3.49-14.72L95,153.61,60.67,132.43a10.86,10.86,0,0,1-3.54-14.94l15.3-24.81A10.69,10.69,0,0,1,87.14,89.2l30.79,19V72.09A10.77,10.77,0,0,1,128.7,61.32h29a10.94,10.94,0,0,1,10.94,10.95V108.2l30.56-18.86a11,11,0,0,1,15.08,3.57l15.08,24.45a11,11,0,0,1-3.59,15.16l-34.19,21.09,34.28,21.14a10.92,10.92,0,0,1,3.56,15l-15.22,24.67A10.82,10.82,0,0,1,199.32,218L168.63,199v36a10.86,10.86,0,0,1-10.85,10.86H129A11.06,11.06,0,0,1,117.94,234.83Zm26.46-19.39.2-6.84a9.44,9.44,0,0,1-4,.09l.2,6.75Zm1.1-8.59c.05-1.65-.77-2.88-3.8-3.35-2.8-.9-1.48-3.65.18-4.6,3.75-1.84,6.65-3.7,8.22-6.51.94-2.78.38-4.8-1.53-6.15a2.23,2.23,0,0,0-.95-.35h-1.13c-.68,2.93-2.26,4.93-4.52,5.6-6.68,2-9.57,8.58-4.79,13.82A7.59,7.59,0,0,0,145.5,206.85Zm-.73-3.85.11-4.09-2.31,1.22-.37.28a2.23,2.23,0,0,0-.7,1.09.37.37,0,0,0,.2.48l.4.17,1,.2A7.34,7.34,0,0,1,144.77,203Zm-3.2-12.86c1.61-.48,3-1.95,3.55-4.57a1.15,1.15,0,0,1,.17-.41l.36-12.34c-3.28.77-6,2.09-6,3.76v.36l.4,13.74A12.11,12.11,0,0,1,141.57,190.14Zm-3.39-4v-9.58c0-3.4,5.28-4.92,8.58-5.51,5.52-1,9.85-4.43,10.3-8.95.49-5-3.36-9.3-9.13-11.83v10.3c-.35,2-2.21,2.9-3.79,3.25-7.67,1.72-15.44,6.6-14.18,13.55C130.67,181.32,133.26,184.6,138.18,186.16Zm5.64-23.77a4.06,4.06,0,0,0,2.17-1.1l.7-23.84c-1.34.47-2.65.87-3.74,1.24-3.14,1.09-3.51,1.69-3.46,2.12V141l-.09,13.37a1.28,1.28,0,0,1-.37.92l.24,8.49A30.21,30.21,0,0,1,143.82,162.39Zm-5.73-8,.09-13.37c-.45-3.43,7.77-3.7,12.74-7,4.65-3.13,8.06-8.37,8-13.63-.13-6.13-2.33-12-9.94-15.46-8.68-3-14.4.14-18.52,6.51a25.58,25.58,0,0,0,17.08,5c2.92,3.34,1.44,7.59-3.71,10-6.21,2.94-15.37,6-16.35,12.92C126.56,145.43,129.31,151.23,138.09,154.35Zm5.12-29.11a8.28,8.28,0,0,0,3.94-3.29l.1-3.51-.09-.19-.36-.5-1.87,0a28.17,28.17,0,0,1-7-1.1l.32,10.82C140,126.65,141.77,125.92,143.21,125.24Zm5.54-28.84a6.06,6.06,0,1,0-6.05,5.74A5.91,5.91,0,0,0,148.75,96.4Z"/></g></g></svg>